<?xml version="1.0" encoding="utf-8"?>
<!-- Generator: Adobe Illustrator 28.0.0, SVG Export Plug-In . SVG Version: 6.00 Build 0)  -->
<svg version="1.1" id="Capa_1" xmlns="http://www.w3.org/2000/svg" xmlns:xlink="http://www.w3.org/1999/xlink" x="0px" y="0px"
	 viewBox="0 0 100 19.18" style="enable-background:new 0 0 100 19.18;" xml:space="preserve">
<style type="text/css">
	.st0{fill:#E6007E;}
</style>
<g>
	<path class="st0" d="M7.33,14.76c-1.1,0-1.98-0.35-2.66-1.04c-0.68-0.69-1.02-1.61-1.02-2.76v-0.21c0-0.77,0.15-1.46,0.44-2.06
		S4.8,7.62,5.34,7.28c0.54-0.34,1.13-0.51,1.79-0.51c1.05,0,1.86,0.33,2.43,1s0.86,1.62,0.86,2.84v0.7H5.39
		c0.05,0.64,0.26,1.14,0.64,1.51s0.84,0.56,1.41,0.56c0.79,0,1.44-0.32,1.94-0.96l0.93,0.89c-0.31,0.46-0.72,0.82-1.23,1.07
		S7.97,14.76,7.33,14.76z M7.13,8.17c-0.47,0-0.86,0.17-1.15,0.5C5.68,9,5.5,9.46,5.42,10.05h3.29V9.92
		C8.67,9.34,8.52,8.91,8.25,8.61C7.98,8.31,7.6,8.17,7.13,8.17z"/>
	<path class="st0" d="M16.08,12.53c0-0.31-0.13-0.54-0.38-0.7c-0.25-0.16-0.67-0.3-1.26-0.43c-0.59-0.12-1.08-0.28-1.47-0.47
		c-0.86-0.42-1.3-1.02-1.3-1.81c0-0.66,0.28-1.22,0.84-1.67c0.56-0.45,1.27-0.67,2.13-0.67c0.92,0,1.66,0.23,2.23,0.68
		c0.57,0.46,0.85,1.05,0.85,1.77h-1.73c0-0.33-0.12-0.61-0.37-0.83s-0.57-0.33-0.98-0.33c-0.38,0-0.69,0.09-0.93,0.26
		s-0.36,0.41-0.36,0.7c0,0.27,0.11,0.47,0.33,0.62s0.67,0.3,1.35,0.44c0.68,0.15,1.21,0.33,1.6,0.53c0.39,0.21,0.67,0.45,0.86,0.74
		c0.19,0.29,0.28,0.64,0.28,1.05c0,0.69-0.29,1.25-0.86,1.68c-0.57,0.43-1.33,0.64-2.26,0.64c-0.63,0-1.19-0.11-1.69-0.34
		c-0.49-0.23-0.88-0.54-1.15-0.94s-0.41-0.83-0.41-1.29h1.68c0.02,0.41,0.18,0.72,0.46,0.94c0.28,0.22,0.66,0.33,1.13,0.33
		c0.46,0,0.8-0.09,1.04-0.26C15.96,13.03,16.08,12.81,16.08,12.53z"/>
	<path class="st0" d="M26.02,10.85c0,1.19-0.27,2.14-0.81,2.85c-0.54,0.71-1.27,1.06-2.18,1.06c-0.84,0-1.52-0.28-2.03-0.83v3.65
		h-1.73V6.92h1.59l0.07,0.78c0.51-0.62,1.2-0.93,2.07-0.93c0.94,0,1.68,0.35,2.21,1.05c0.53,0.7,0.8,1.67,0.8,2.91V10.85z
		 M24.3,10.7c0-0.77-0.15-1.38-0.46-1.83c-0.31-0.45-0.74-0.68-1.31-0.68c-0.71,0-1.21,0.29-1.52,0.88v3.42
		c0.31,0.6,0.83,0.9,1.54,0.9c0.55,0,0.98-0.22,1.29-0.67C24.15,12.27,24.3,11.6,24.3,10.7z"/>
	<path class="st0" d="M32.09,14.62c-0.08-0.15-0.14-0.39-0.2-0.72c-0.55,0.57-1.22,0.86-2.02,0.86c-0.77,0-1.4-0.22-1.89-0.66
		c-0.49-0.44-0.73-0.99-0.73-1.64c0-0.82,0.3-1.45,0.91-1.89c0.61-0.44,1.48-0.66,2.61-0.66h1.06V9.41c0-0.4-0.11-0.72-0.33-0.96
		s-0.56-0.36-1.02-0.36c-0.39,0-0.72,0.1-0.97,0.3c-0.25,0.2-0.38,0.45-0.38,0.75H27.4c0-0.42,0.14-0.82,0.42-1.18
		c0.28-0.37,0.66-0.66,1.14-0.86c0.48-0.21,1.02-0.31,1.61-0.31c0.9,0,1.62,0.23,2.16,0.68c0.54,0.45,0.81,1.09,0.83,1.91v3.47
		c0,0.69,0.1,1.25,0.29,1.66v0.12H32.09z M30.19,13.37c0.34,0,0.66-0.08,0.96-0.25s0.53-0.39,0.68-0.67V11H30.9
		c-0.64,0-1.12,0.11-1.44,0.33c-0.32,0.22-0.48,0.54-0.48,0.95c0,0.33,0.11,0.6,0.33,0.79C29.52,13.28,29.82,13.37,30.19,13.37z"/>
	<path class="st0" d="M38.53,13.38c0.43,0,0.79-0.13,1.07-0.38c0.28-0.25,0.44-0.56,0.46-0.93h1.63c-0.02,0.48-0.17,0.93-0.45,1.34
		c-0.28,0.42-0.66,0.74-1.14,0.99c-0.48,0.24-1,0.36-1.55,0.36c-1.08,0-1.93-0.35-2.56-1.05c-0.63-0.7-0.95-1.66-0.95-2.89v-0.18
		c0-1.17,0.31-2.11,0.94-2.81c0.63-0.7,1.48-1.06,2.56-1.06c0.92,0,1.66,0.27,2.24,0.8c0.58,0.53,0.88,1.23,0.91,2.1h-1.63
		c-0.02-0.44-0.17-0.8-0.45-1.09s-0.64-0.43-1.08-0.43c-0.56,0-0.99,0.2-1.3,0.61c-0.3,0.41-0.46,1.02-0.46,1.85v0.28
		c0,0.83,0.15,1.46,0.45,1.87C37.53,13.18,37.96,13.38,38.53,13.38z"/>
	<path class="st0" d="M44.84,14.62h-1.73v-7.7h1.73V14.62z"/>
	<path class="st0" d="M46.4,10.7c0-0.75,0.15-1.43,0.45-2.04s0.72-1.07,1.26-1.39c0.54-0.32,1.16-0.49,1.86-0.49
		c1.04,0,1.88,0.33,2.53,1s1,1.56,1.05,2.66l0.01,0.41c0,0.76-0.15,1.44-0.44,2.04s-0.71,1.06-1.25,1.39
		c-0.54,0.33-1.17,0.49-1.88,0.49c-1.09,0-1.96-0.36-2.61-1.09c-0.65-0.72-0.98-1.69-0.98-2.89V10.7z M48.12,10.85
		c0,0.79,0.16,1.41,0.49,1.86s0.78,0.67,1.37,0.67s1.04-0.23,1.36-0.68c0.32-0.46,0.49-1.12,0.49-2c0-0.78-0.17-1.39-0.5-1.85
		C51,8.39,50.54,8.17,49.97,8.17c-0.56,0-1.01,0.22-1.34,0.67C48.29,9.29,48.12,9.96,48.12,10.85z"/>
	<path class="st0" d="M62.32,14.76c-1.08,0-1.96-0.34-2.63-1.02c-0.67-0.68-1.01-1.59-1.01-2.73V10.8c0-0.76,0.15-1.44,0.44-2.04
		c0.29-0.6,0.7-1.06,1.23-1.4c0.53-0.33,1.12-0.5,1.77-0.5c1.04,0,1.84,0.33,2.4,0.99c0.57,0.66,0.85,1.6,0.85,2.81v0.69H60.4
		c0.05,0.63,0.26,1.13,0.63,1.49s0.83,0.55,1.39,0.55c0.78,0,1.42-0.32,1.91-0.95l0.92,0.88c-0.31,0.45-0.71,0.81-1.22,1.06
		S62.96,14.76,62.32,14.76z M62.12,8.24c-0.47,0-0.85,0.16-1.14,0.49c-0.29,0.33-0.47,0.79-0.55,1.37h3.26V9.98
		c-0.04-0.57-0.19-1-0.46-1.3C62.96,8.39,62.59,8.24,62.12,8.24z"/>
	<path class="st0" d="M71.25,14.62c-0.07-0.15-0.14-0.38-0.2-0.71c-0.54,0.57-1.21,0.85-2,0.85c-0.76,0-1.39-0.22-1.87-0.65
		c-0.48-0.44-0.72-0.98-0.72-1.62c0-0.81,0.3-1.43,0.9-1.87c0.6-0.43,1.46-0.65,2.58-0.65H71v-0.5c0-0.39-0.11-0.71-0.33-0.95
		s-0.56-0.36-1.01-0.36c-0.39,0-0.71,0.1-0.96,0.29S68.33,8.9,68.33,9.2h-1.71c0-0.42,0.14-0.81,0.41-1.17
		c0.28-0.36,0.65-0.65,1.13-0.85c0.48-0.21,1.01-0.31,1.59-0.31c0.89,0,1.6,0.22,2.13,0.67c0.53,0.45,0.8,1.08,0.82,1.89v3.43
		c0,0.68,0.1,1.23,0.29,1.64v0.12H71.25z M69.37,13.39c0.34,0,0.66-0.08,0.95-0.25c0.3-0.16,0.52-0.38,0.67-0.66v-1.43h-0.92
		c-0.63,0-1.11,0.11-1.43,0.33c-0.32,0.22-0.48,0.53-0.48,0.94c0,0.33,0.11,0.59,0.33,0.78S69.01,13.39,69.37,13.39z"/>
	<path class="st0" d="M78.76,12.55c0-0.31-0.13-0.54-0.38-0.7c-0.25-0.16-0.67-0.3-1.25-0.42c-0.58-0.12-1.07-0.28-1.46-0.46
		c-0.85-0.41-1.28-1.01-1.28-1.79c0-0.66,0.28-1.21,0.83-1.65c0.55-0.44,1.26-0.66,2.11-0.66c0.91,0,1.65,0.23,2.21,0.68
		c0.56,0.45,0.84,1.03,0.84,1.75h-1.71c0-0.33-0.12-0.6-0.37-0.82c-0.24-0.22-0.57-0.33-0.97-0.33c-0.38,0-0.68,0.09-0.92,0.26
		c-0.24,0.17-0.36,0.41-0.36,0.7c0,0.26,0.11,0.47,0.33,0.61s0.67,0.29,1.34,0.44c0.67,0.15,1.2,0.32,1.58,0.53s0.67,0.45,0.85,0.74
		c0.19,0.29,0.28,0.63,0.28,1.04c0,0.68-0.28,1.24-0.85,1.66c-0.57,0.42-1.31,0.64-2.23,0.64c-0.62,0-1.18-0.11-1.67-0.34
		c-0.49-0.23-0.87-0.53-1.14-0.93s-0.41-0.82-0.41-1.27h1.66c0.02,0.4,0.18,0.71,0.46,0.93c0.28,0.22,0.65,0.33,1.12,0.33
		c0.45,0,0.79-0.09,1.03-0.26S78.76,12.83,78.76,12.55z"/>
	<path class="st0" d="M81.61,10.76c0-1.17,0.27-2.11,0.82-2.82c0.54-0.71,1.27-1.07,2.19-1.07c0.81,0,1.46,0.28,1.96,0.84v-3.9h1.71
		v10.8h-1.55l-0.08-0.79c-0.51,0.62-1.19,0.93-2.05,0.93c-0.89,0-1.61-0.36-2.16-1.08C81.89,12.97,81.61,11.99,81.61,10.76z
		 M83.32,10.91c0,0.77,0.15,1.38,0.45,1.81c0.3,0.43,0.72,0.65,1.27,0.65c0.7,0,1.21-0.31,1.53-0.94V9.18
		c-0.31-0.61-0.82-0.91-1.52-0.91c-0.55,0-0.98,0.22-1.28,0.66C83.47,9.37,83.32,10.03,83.32,10.91z"/>
	<path class="st0" d="M94.61,14.62c-0.07-0.15-0.14-0.38-0.2-0.71c-0.54,0.57-1.21,0.85-2,0.85c-0.76,0-1.39-0.22-1.87-0.65
		c-0.48-0.44-0.72-0.98-0.72-1.62c0-0.81,0.3-1.43,0.9-1.87c0.6-0.43,1.46-0.65,2.58-0.65h1.05v-0.5c0-0.39-0.11-0.71-0.33-0.95
		s-0.56-0.36-1.01-0.36c-0.39,0-0.71,0.1-0.96,0.29S91.69,8.9,91.69,9.2h-1.71c0-0.42,0.14-0.81,0.42-1.17
		c0.28-0.36,0.65-0.65,1.13-0.85c0.48-0.21,1.01-0.31,1.59-0.31c0.89,0,1.6,0.22,2.13,0.67c0.53,0.45,0.8,1.08,0.82,1.89v3.43
		c0,0.68,0.1,1.23,0.29,1.64v0.12H94.61z M92.73,13.39c0.34,0,0.66-0.08,0.95-0.25c0.3-0.16,0.52-0.38,0.67-0.66v-1.43h-0.92
		c-0.63,0-1.11,0.11-1.43,0.33c-0.32,0.22-0.48,0.53-0.48,0.94c0,0.33,0.11,0.59,0.33,0.78C92.07,13.29,92.37,13.39,92.73,13.39z"/>
	<polygon class="st0" points="44.51,2.67 45.73,2.79 44.89,3.69 45.16,4.89 44.04,4.37 42.98,4.99 43.13,3.77 42.21,2.96 
		43.42,2.72 43.91,1.6 	"/>
</g>
</svg>
