<?xml version="1.0" encoding="utf-8"?>
<!-- Generator: Adobe Illustrator 28.0.0, SVG Export Plug-In . SVG Version: 6.00 Build 0)  -->
<svg version="1.1" id="Capa_1" xmlns="http://www.w3.org/2000/svg" xmlns:xlink="http://www.w3.org/1999/xlink" x="0px" y="0px"
	 viewBox="0 0 75 75" style="enable-background:new 0 0 75 75;" xml:space="preserve">
<style type="text/css">
	.st0{fill:#E6007E;}
</style>
<g>
	<path class="st0" d="M74.17,34.08c-0.55-2.93-2.68-5.21-5.3-5.65L66.32,28C61.83,16.76,50.76,8.79,37.8,8.73V7.19
		c0.94-0.19,1.64-1.02,1.64-2.01c0-1.13-0.92-2.05-2.05-2.05c-1.13,0-2.05,0.92-2.05,2.05c0,0.99,0.7,1.82,1.64,2.01v1.54
		C24.24,8.99,13.41,16.88,8.96,27.96l-2.83,0.47c-2.62,0.44-4.75,2.72-5.3,5.65c-0.67,3.56-0.79,6.81-0.28,9.7
		c0.56,3.22,3.14,5.56,6.06,5.26c0.64-0.07,1.28,0.03,1.93,0.27c0.52,1.45,1.14,2.86,1.87,4.2v5.29c-0.03,0-0.07-0.01-0.1-0.01
		c-0.11,0-0.22,0.01-0.33,0.03c-0.59,0.11-1.01,0.5-1.01,0.94v0.61c0,2.13,1.14,3.31,3.21,4.77c6.03,4.24,15.2,6.74,25.47,6.74
		c10.27,0,19.44-2.49,25.47-6.74c2.07-1.45,3.21-2.63,3.21-4.77v-0.61c0-0.44-0.42-0.83-1.01-0.94c-0.11-0.02-0.22-0.03-0.33-0.03
		c-0.03,0-0.07,0-0.1,0.01v-5.29c0.01-0.02,0.02-0.04,0.03-0.06c0.73-1.36,1.35-2.77,1.87-4.24c0.55-0.17,1.09-0.23,1.63-0.17
		c2.92,0.3,5.5-2.03,6.06-5.26C74.96,40.89,74.84,37.64,74.17,34.08z M63.9,49.34c-4.61,8.43-14.7,13.51-26.4,13.51
		c-11.71,0-21.79-5.09-26.4-13.51c-1.71-3.13-2.67-6.73-2.67-10.69c0-14.63,13.01-26.49,29.07-26.49
		c16.05,0,29.07,11.86,29.07,26.49C66.57,42.61,65.61,46.2,63.9,49.34z"/>
	<path class="st0" d="M54.2,30.93c-0.47-4.12-3.81-7.44-7.94-7.88c-2.39-0.26-4.73,0.41-6.6,1.9l2.39,2.57
		c1.1-0.79,2.45-1.14,3.83-1c2.52,0.27,4.56,2.29,4.84,4.81c0.17,1.45-0.22,2.87-1.1,4.01L37.56,47.91v5.04l14.65-15.27l0.11-0.12
		C53.81,35.68,54.47,33.33,54.2,30.93z M37.51,27.06c-1.17-1.19-2.34-2.39-3.91-3.04c-2.48-1.03-5.34-0.92-7.76,0.22
		c-1.52,0.71-2.37,1.62-2.46,1.71c-0.13,0.14-0.25,0.28-0.37,0.42c-3.21,3.87-3.01,9.23,0.48,12.75l3.31,3.6
		c0,0,13.06-13.07,13.09-13.11c0.09-0.09-2.08-2.23-2.25-2.42C37.6,27.16,37.56,27.11,37.51,27.06z M26.92,37.67l-0.86-0.94
		L26,36.68c-2.25-2.25-2.37-5.57-0.29-8.08c0.08-0.09,0.16-0.18,0.24-0.27c0,0,0.5-0.52,1.39-0.93c0.84-0.4,1.75-0.59,2.65-0.59
		c1.4,0,2.76,0.47,3.75,1.36l1.28,1.4L26.92,37.67z"/>
	<g>
		<polygon class="st0" points="18.07,50.96 18.37,48.93 19.8,50.41 21.82,50.07 20.85,51.88 21.8,53.7 19.78,53.34 18.34,54.8 
			18.06,52.77 16.23,51.86 		"/>
		<polygon class="st0" points="14.59,46.77 15.18,46.12 15.34,46.98 16.14,47.34 15.37,47.76 15.28,48.63 14.64,48.03 13.78,48.21 
			14.16,47.42 13.72,46.66 		"/>
		<polygon class="st0" points="24.16,55.91 25.01,55.71 24.65,56.51 25.11,57.26 24.24,57.17 23.67,57.84 23.48,56.98 22.67,56.64 
			23.43,56.2 23.5,55.32 		"/>
		<polygon class="st0" points="13.04,42.84 13.59,42.65 13.4,43.2 13.74,43.66 13.17,43.65 12.83,44.12 12.66,43.57 12.12,43.39 
			12.59,43.06 12.58,42.49 		"/>
		<polygon class="st0" points="25,52.19 25.38,51.77 25.49,52.33 26.01,52.57 25.51,52.84 25.45,53.41 25.03,53.02 24.47,53.14 
			24.72,52.62 24.43,52.12 		"/>
		<polygon class="st0" points="28.14,55.33 28.52,54.9 28.63,55.47 29.15,55.7 28.65,55.98 28.59,56.55 28.17,56.15 27.61,56.27 
			27.86,55.75 27.57,55.26 		"/>
	</g>
	<g>
		<polygon class="st0" points="52.58,18.89 52.1,19.63 51.81,18.8 50.96,18.57 51.66,18.04 51.61,17.16 52.33,17.66 53.15,17.34 
			52.9,18.18 53.46,18.87 		"/>
		<polygon class="st0" points="46.4,18.58 45.19,18.22 46.22,17.48 46.2,16.22 47.21,16.97 48.41,16.56 48.01,17.75 48.77,18.76 
			47.51,18.75 46.78,19.79 		"/>
		<polygon class="st0" points="43.14,16.35 42.53,16.6 42.7,15.96 42.28,15.45 42.94,15.42 43.29,14.85 43.53,15.48 44.17,15.64 
			43.65,16.05 43.7,16.71 		"/>
		<polygon class="st0" points="54.41,21.73 53.93,22.05 53.97,21.48 53.52,21.12 54.07,20.98 54.27,20.44 54.58,20.93 55.15,20.95 
			54.79,21.39 54.94,21.95 		"/>
	</g>
</g>
</svg>
